# MagicaVoxel @ Ephtracy

# material
mtllib MC_City.mtl
usemtl palette

# normals
vn -1 0 0
vn 1 0 0
vn 0 0 1
vn 0 0 -1
vn 0 -1 0
vn 0 1 0

# texcoords
vt 0.751953 0.5
vt 0.775391 0.5
vt 0.798828 0.5
vt 0.822266 0.5
vt 0.919922 0.5
vt 0.923828 0.5
vt 0.927734 0.5
vt 0.939453 0.5
vt 0.943359 0.5

# verts
v -20 0 0.5
v -20 0 -0.5
v -20 2 0.5
v -20 2 -0.5
v -18 2 0.5
v -18 2 -0.5
v -18 4 0.5
v -18 4 -0.5
v -16 4 0.5
v -16 4 -0.5
v -16 6 0.5
v -16 6 -0.5
v -15 6 0.5
v -15 6 -0.5
v -15 15 0.5
v -15 15 -0.5
v -6 9 0.5
v -6 9 -0.5
v -6 10 0.5
v -6 10 -0.5
v -6 11 0.5
v -6 11 -0.5
v 2 8 0.5
v 2 8 -0.5
v 2 10 0.5
v 2 10 -0.5
v 2 14 0.5
v 2 14 -0.5
v 6 12 0.5
v 6 12 -0.5
v 6 17 0.5
v 6 17 -0.5
v 8 17 0.5
v 8 17 -0.5
v 8 20 0.5
v 8 20 -0.5
v 13 10 0.5
v 13 10 -0.5
v 13 12 0.5
v 13 12 -0.5
v -13 13 0.5
v -13 13 -0.5
v -13 15 0.5
v -13 15 -0.5
v -12 11 0.5
v -12 11 -0.5
v -12 13 0.5
v -12 13 -0.5
v -10 9 0.5
v -10 9 -0.5
v -10 11 0.5
v -10 11 -0.5
v -4 9 0.5
v -4 9 -0.5
v -4 10 0.5
v -4 10 -0.5
v -4 11 0.5
v -4 11 -0.5
v -2 8 0.5
v -2 8 -0.5
v -2 9 0.5
v -2 9 -0.5
v 4 12 0.5
v 4 12 -0.5
v 4 14 0.5
v 4 14 -0.5
v 11 10 0.5
v 11 10 -0.5
v 11 20 0.5
v 11 20 -0.5
v 15 6 0.5
v 15 6 -0.5
v 15 12 0.5
v 15 12 -0.5
v 16 4 0.5
v 16 4 -0.5
v 16 6 0.5
v 16 6 -0.5
v 18 2 0.5
v 18 2 -0.5
v 18 4 0.5
v 18 4 -0.5
v 20 0 0.5
v 20 0 -0.5
v 20 2 0.5
v 20 2 -0.5
v -20 0 0.5
v -20 2 0.5
v -18 2 0.5
v -18 4 0.5
v -16 4 0.5
v -16 6 0.5
v -15 6 0.5
v -15 15 0.5
v -13 13 0.5
v -13 15 0.5
v -12 11 0.5
v -12 13 0.5
v -11 2 0.5
v -11 4 0.5
v -10 6 0.5
v -10 9 0.5
v -10 11 0.5
v -9 4 0.5
v -9 6 0.5
v -8 0 0.5
v -8 2 0.5
v -8 6 0.5
v -8 7 0.5
v -7 7 0.5
v -7 8 0.5
v -6 8 0.5
v -6 9 0.5
v -6 10 0.5
v -6 11 0.5
v -5 2 0.5
v -5 4 0.5
v -4 8 0.5
v -4 9 0.5
v -4 10 0.5
v -4 11 0.5
v -3 4 0.5
v -3 6 0.5
v -3 8 0.5
v -2 8 0.5
v -2 9 0.5
v 0 4 0.5
v 0 6 0.5
v 2 2 0.5
v 2 4 0.5
v 2 6 0.5
v 2 8 0.5
v 2 10 0.5
v 2 14 0.5
v 4 0 0.5
v 4 2 0.5
v 4 10 0.5
v 4 12 0.5
v 4 14 0.5
v 5 4 0.5
v 5 6 0.5
v 6 12 0.5
v 6 17 0.5
v 7 2 0.5
v 7 4 0.5
v 7 6 0.5
v 7 8 0.5
v 8 12 0.5
v 8 17 0.5
v 8 20 0.5
v 11 10 0.5
v 11 20 0.5
v 13 10 0.5
v 13 12 0.5
v 15 6 0.5
v 15 12 0.5
v 16 4 0.5
v 16 6 0.5
v 18 2 0.5
v 18 4 0.5
v 20 0 0.5
v 20 2 0.5
v -20 0 -0.5
v -20 2 -0.5
v -18 2 -0.5
v -18 4 -0.5
v -16 4 -0.5
v -16 6 -0.5
v -15 6 -0.5
v -15 15 -0.5
v -13 13 -0.5
v -13 15 -0.5
v -12 11 -0.5
v -12 13 -0.5
v -11 2 -0.5
v -11 4 -0.5
v -10 6 -0.5
v -10 9 -0.5
v -10 11 -0.5
v -9 4 -0.5
v -9 6 -0.5
v -8 0 -0.5
v -8 2 -0.5
v -8 6 -0.5
v -8 7 -0.5
v -7 7 -0.5
v -7 8 -0.5
v -6 8 -0.5
v -6 9 -0.5
v -6 10 -0.5
v -6 11 -0.5
v -5 2 -0.5
v -5 4 -0.5
v -4 8 -0.5
v -4 9 -0.5
v -4 10 -0.5
v -4 11 -0.5
v -3 4 -0.5
v -3 6 -0.5
v -3 8 -0.5
v -2 8 -0.5
v -2 9 -0.5
v 0 4 -0.5
v 0 6 -0.5
v 2 2 -0.5
v 2 4 -0.5
v 2 6 -0.5
v 2 8 -0.5
v 2 10 -0.5
v 2 14 -0.5
v 4 0 -0.5
v 4 2 -0.5
v 4 10 -0.5
v 4 12 -0.5
v 4 14 -0.5
v 5 4 -0.5
v 5 6 -0.5
v 6 12 -0.5
v 6 17 -0.5
v 7 2 -0.5
v 7 4 -0.5
v 7 6 -0.5
v 7 8 -0.5
v 8 12 -0.5
v 8 17 -0.5
v 8 20 -0.5
v 11 10 -0.5
v 11 20 -0.5
v 13 10 -0.5
v 13 12 -0.5
v 15 6 -0.5
v 15 12 -0.5
v 16 4 -0.5
v 16 6 -0.5
v 18 2 -0.5
v 18 4 -0.5
v 20 0 -0.5
v 20 2 -0.5
v -20 0 0.5
v -8 0 0.5
v 4 0 0.5
v 20 0 0.5
v -20 0 -0.5
v -8 0 -0.5
v 4 0 -0.5
v 20 0 -0.5
v -20 2 0.5
v -18 2 0.5
v 18 2 0.5
v 20 2 0.5
v -20 2 -0.5
v -18 2 -0.5
v 18 2 -0.5
v 20 2 -0.5
v -18 4 0.5
v -16 4 0.5
v 16 4 0.5
v 18 4 0.5
v -18 4 -0.5
v -16 4 -0.5
v 16 4 -0.5
v 18 4 -0.5
v -16 6 0.5
v -15 6 0.5
v 15 6 0.5
v 16 6 0.5
v -16 6 -0.5
v -15 6 -0.5
v 15 6 -0.5
v 16 6 -0.5
v -2 8 0.5
v 2 8 0.5
v -2 8 -0.5
v 2 8 -0.5
v -10 9 0.5
v -6 9 0.5
v -4 9 0.5
v -2 9 0.5
v -10 9 -0.5
v -6 9 -0.5
v -4 9 -0.5
v -2 9 -0.5
v 11 10 0.5
v 13 10 0.5
v 11 10 -0.5
v 13 10 -0.5
v -12 11 0.5
v -10 11 0.5
v -6 11 0.5
v -4 11 0.5
v -12 11 -0.5
v -10 11 -0.5
v -6 11 -0.5
v -4 11 -0.5
v 4 12 0.5
v 6 12 0.5
v 13 12 0.5
v 15 12 0.5
v 4 12 -0.5
v 6 12 -0.5
v 13 12 -0.5
v 15 12 -0.5
v -13 13 0.5
v -12 13 0.5
v -13 13 -0.5
v -12 13 -0.5
v 2 14 0.5
v 4 14 0.5
v 2 14 -0.5
v 4 14 -0.5
v -15 15 0.5
v -13 15 0.5
v -15 15 -0.5
v -13 15 -0.5
v 6 17 0.5
v 8 17 0.5
v 6 17 -0.5
v 8 17 -0.5
v 8 20 0.5
v 11 20 0.5
v 8 20 -0.5
v 11 20 -0.5

# faces
f 3/1/1 2/1/1 1/1/1
f 4/1/1 2/1/1 3/1/1
f 7/6/1 6/6/1 5/6/1
f 8/6/1 6/6/1 7/6/1
f 11/6/1 10/6/1 9/6/1
f 12/6/1 10/6/1 11/6/1
f 15/7/1 14/7/1 13/7/1
f 16/7/1 14/7/1 15/7/1
f 19/7/1 18/7/1 17/7/1
f 20/7/1 18/7/1 19/7/1
f 21/5/1 20/5/1 19/5/1
f 22/5/1 20/5/1 21/5/1
f 25/5/1 24/5/1 23/5/1
f 26/5/1 24/5/1 25/5/1
f 27/7/1 26/7/1 25/7/1
f 28/7/1 26/7/1 27/7/1
f 31/7/1 30/7/1 29/7/1
f 32/7/1 30/7/1 31/7/1
f 35/5/1 34/5/1 33/5/1
f 36/5/1 34/5/1 35/5/1
f 39/5/1 38/5/1 37/5/1
f 40/5/1 38/5/1 39/5/1
f 41/7/2 42/7/2 43/7/2
f 43/7/2 42/7/2 44/7/2
f 45/7/2 46/7/2 47/7/2
f 47/7/2 46/7/2 48/7/2
f 49/7/2 50/7/2 51/7/2
f 51/7/2 50/7/2 52/7/2
f 53/7/2 54/7/2 55/7/2
f 55/7/2 54/7/2 56/7/2
f 55/5/2 56/5/2 57/5/2
f 57/5/2 56/5/2 58/5/2
f 59/5/2 60/5/2 61/5/2
f 61/5/2 60/5/2 62/5/2
f 63/7/2 64/7/2 65/7/2
f 65/7/2 64/7/2 66/7/2
f 67/5/2 68/5/2 69/5/2
f 69/5/2 68/5/2 70/5/2
f 71/5/2 72/5/2 73/5/2
f 73/5/2 72/5/2 74/5/2
f 75/6/2 76/6/2 77/6/2
f 77/6/2 76/6/2 78/6/2
f 79/6/2 80/6/2 81/6/2
f 81/6/2 80/6/2 82/6/2
f 83/1/2 84/1/2 85/1/2
f 85/1/2 84/1/2 86/1/2
f 89/1/3 88/1/3 87/1/3
f 91/6/3 90/6/3 89/6/3
f 93/6/3 92/6/3 91/6/3
f 95/7/3 94/7/3 93/7/3
f 96/7/3 94/7/3 95/7/3
f 97/7/3 95/7/3 93/7/3
f 98/7/3 95/7/3 97/7/3
f 99/1/3 89/1/3 87/1/3
f 99/6/3 91/6/3 89/6/3
f 99/6/3 93/6/3 91/6/3
f 100/6/3 93/6/3 99/6/3
f 101/7/3 97/7/3 93/7/3
f 101/6/3 93/6/3 100/6/3
f 102/7/3 97/7/3 101/7/3
f 103/7/3 97/7/3 102/7/3
f 104/2/3 100/2/3 99/2/3
f 104/6/3 101/6/3 100/6/3
f 105/5/3 102/5/3 101/5/3
f 105/6/3 101/6/3 104/6/3
f 106/1/3 99/1/3 87/1/3
f 107/2/3 104/2/3 99/2/3
f 107/1/3 99/1/3 106/1/3
f 107/2/3 105/2/3 104/2/3
f 108/5/3 102/5/3 105/5/3
f 108/2/3 105/2/3 107/2/3
f 109/5/3 102/5/3 108/5/3
f 110/7/3 109/7/3 108/7/3
f 110/5/3 102/5/3 109/5/3
f 111/5/3 102/5/3 110/5/3
f 112/7/3 111/7/3 110/7/3
f 112/5/3 102/5/3 111/5/3
f 113/5/3 102/5/3 112/5/3
f 116/8/3 107/8/3 106/8/3
f 116/2/3 108/2/3 107/2/3
f 117/2/3 108/2/3 116/2/3
f 118/7/3 114/7/3 113/7/3
f 118/7/3 112/7/3 110/7/3
f 118/7/3 113/7/3 112/7/3
f 119/7/3 114/7/3 118/7/3
f 120/5/3 115/5/3 114/5/3
f 120/7/3 114/7/3 119/7/3
f 121/5/3 115/5/3 120/5/3
f 122/2/3 108/2/3 117/2/3
f 122/8/3 117/8/3 116/8/3
f 123/7/3 110/7/3 108/7/3
f 123/2/3 108/2/3 122/2/3
f 123/7/3 118/7/3 110/7/3
f 124/5/3 119/5/3 118/5/3
f 124/7/3 118/7/3 123/7/3
f 125/3/3 124/3/3 123/3/3
f 125/5/3 119/5/3 124/5/3
f 126/5/3 119/5/3 125/5/3
f 127/9/3 123/9/3 122/9/3
f 127/8/3 122/8/3 116/8/3
f 128/3/3 125/3/3 123/3/3
f 128/9/3 123/9/3 127/9/3
f 129/8/3 127/8/3 116/8/3
f 129/8/3 116/8/3 106/8/3
f 130/2/3 128/2/3 127/2/3
f 130/8/3 127/8/3 129/8/3
f 131/3/3 125/3/3 128/3/3
f 131/2/3 128/2/3 130/2/3
f 132/3/3 125/3/3 131/3/3
f 135/8/3 129/8/3 106/8/3
f 136/2/3 131/2/3 130/2/3
f 136/8/3 129/8/3 135/8/3
f 136/2/3 130/2/3 129/2/3
f 137/5/3 133/5/3 132/5/3
f 137/7/3 134/7/3 133/7/3
f 138/7/3 134/7/3 137/7/3
f 139/7/3 134/7/3 138/7/3
f 140/2/3 131/2/3 136/2/3
f 141/4/3 132/4/3 131/4/3
f 141/2/3 131/2/3 140/2/3
f 142/5/3 138/5/3 137/5/3
f 144/2/3 140/2/3 136/2/3
f 144/1/3 136/1/3 135/1/3
f 145/6/3 141/6/3 140/6/3
f 145/2/3 140/2/3 144/2/3
f 146/4/3 132/4/3 141/4/3
f 146/6/3 141/6/3 145/6/3
f 147/5/3 142/5/3 137/5/3
f 147/4/3 132/4/3 146/4/3
f 147/5/3 137/5/3 132/5/3
f 148/7/3 143/7/3 142/7/3
f 148/5/3 142/5/3 147/5/3
f 148/5/3 147/5/3 146/5/3
f 149/7/3 143/7/3 148/7/3
f 151/5/3 148/5/3 146/5/3
f 151/5/3 150/5/3 149/5/3
f 151/5/3 149/5/3 148/5/3
f 152/5/3 150/5/3 151/5/3
f 153/5/3 151/5/3 146/5/3
f 155/6/3 146/6/3 145/6/3
f 155/5/3 154/5/3 153/5/3
f 155/5/3 153/5/3 146/5/3
f 155/6/3 145/6/3 144/6/3
f 156/5/3 154/5/3 155/5/3
f 157/6/3 155/6/3 144/6/3
f 158/6/3 155/6/3 157/6/3
f 159/1/3 144/1/3 135/1/3
f 159/6/3 157/6/3 144/6/3
f 160/6/3 157/6/3 159/6/3
f 161/1/3 159/1/3 135/1/3
f 162/1/3 159/1/3 161/1/3
f 163/1/4 164/1/4 165/1/4
f 165/6/4 166/6/4 167/6/4
f 167/6/4 168/6/4 169/6/4
f 169/7/4 170/7/4 171/7/4
f 171/7/4 170/7/4 172/7/4
f 169/7/4 171/7/4 173/7/4
f 173/7/4 171/7/4 174/7/4
f 163/1/4 165/1/4 175/1/4
f 165/6/4 167/6/4 175/6/4
f 167/6/4 169/6/4 175/6/4
f 175/6/4 169/6/4 176/6/4
f 169/7/4 173/7/4 177/7/4
f 176/6/4 169/6/4 177/6/4
f 177/7/4 173/7/4 178/7/4
f 178/7/4 173/7/4 179/7/4
f 175/2/4 176/2/4 180/2/4
f 176/6/4 177/6/4 180/6/4
f 177/5/4 178/5/4 181/5/4
f 180/6/4 177/6/4 181/6/4
f 163/1/4 175/1/4 182/1/4
f 175/2/4 180/2/4 183/2/4
f 182/1/4 175/1/4 183/1/4
f 180/2/4 181/2/4 183/2/4
f 181/5/4 178/5/4 184/5/4
f 183/2/4 181/2/4 184/2/4
f 184/5/4 178/5/4 185/5/4
f 184/7/4 185/7/4 186/7/4
f 185/5/4 178/5/4 186/5/4
f 186/5/4 178/5/4 187/5/4
f 186/7/4 187/7/4 188/7/4
f 187/5/4 178/5/4 188/5/4
f 188/5/4 178/5/4 189/5/4
f 182/8/4 183/8/4 192/8/4
f 183/2/4 184/2/4 192/2/4
f 192/2/4 184/2/4 193/2/4
f 189/7/4 190/7/4 194/7/4
f 186/7/4 188/7/4 194/7/4
f 188/7/4 189/7/4 194/7/4
f 194/7/4 190/7/4 195/7/4
f 190/5/4 191/5/4 196/5/4
f 195/7/4 190/7/4 196/7/4
f 196/5/4 191/5/4 197/5/4
f 193/2/4 184/2/4 198/2/4
f 192/8/4 193/8/4 198/8/4
f 184/7/4 186/7/4 199/7/4
f 198/2/4 184/2/4 199/2/4
f 186/7/4 194/7/4 199/7/4
f 194/5/4 195/5/4 200/5/4
f 199/7/4 194/7/4 200/7/4
f 199/3/4 200/3/4 201/3/4
f 200/5/4 195/5/4 201/5/4
f 201/5/4 195/5/4 202/5/4
f 198/9/4 199/9/4 203/9/4
f 192/8/4 198/8/4 203/8/4
f 199/3/4 201/3/4 204/3/4
f 203/9/4 199/9/4 204/9/4
f 192/8/4 203/8/4 205/8/4
f 182/8/4 192/8/4 205/8/4
f 203/2/4 204/2/4 206/2/4
f 205/8/4 203/8/4 206/8/4
f 204/3/4 201/3/4 207/3/4
f 206/2/4 204/2/4 207/2/4
f 207/3/4 201/3/4 208/3/4
f 182/8/4 205/8/4 211/8/4
f 206/2/4 207/2/4 212/2/4
f 211/8/4 205/8/4 212/8/4
f 205/2/4 206/2/4 212/2/4
f 208/5/4 209/5/4 213/5/4
f 209/7/4 210/7/4 213/7/4
f 213/7/4 210/7/4 214/7/4
f 214/7/4 210/7/4 215/7/4
f 212/2/4 207/2/4 216/2/4
f 207/4/4 208/4/4 217/4/4
f 216/2/4 207/2/4 217/2/4
f 213/5/4 214/5/4 218/5/4
f 212/2/4 216/2/4 220/2/4
f 211/1/4 212/1/4 220/1/4
f 216/6/4 217/6/4 221/6/4
f 220/2/4 216/2/4 221/2/4
f 217/4/4 208/4/4 222/4/4
f 221/6/4 217/6/4 222/6/4
f 213/5/4 218/5/4 223/5/4
f 222/4/4 208/4/4 223/4/4
f 208/5/4 213/5/4 223/5/4
f 218/7/4 219/7/4 224/7/4
f 223/5/4 218/5/4 224/5/4
f 222/5/4 223/5/4 224/5/4
f 224/7/4 219/7/4 225/7/4
f 222/5/4 224/5/4 227/5/4
f 225/5/4 226/5/4 227/5/4
f 224/5/4 225/5/4 227/5/4
f 227/5/4 226/5/4 228/5/4
f 222/5/4 227/5/4 229/5/4
f 221/6/4 222/6/4 231/6/4
f 229/5/4 230/5/4 231/5/4
f 222/5/4 229/5/4 231/5/4
f 220/6/4 221/6/4 231/6/4
f 231/5/4 230/5/4 232/5/4
f 220/6/4 231/6/4 233/6/4
f 233/6/4 231/6/4 234/6/4
f 211/1/4 220/1/4 235/1/4
f 220/6/4 233/6/4 235/6/4
f 235/6/4 233/6/4 236/6/4
f 211/1/4 235/1/4 237/1/4
f 237/1/4 235/1/4 238/1/4
f 243/1/5 240/1/5 239/1/5
f 244/8/5 241/8/5 240/8/5
f 244/1/5 240/1/5 243/1/5
f 245/1/5 242/1/5 241/1/5
f 245/8/5 241/8/5 244/8/5
f 246/1/5 242/1/5 245/1/5
f 247/1/6 248/1/6 251/1/6
f 251/1/6 248/1/6 252/1/6
f 249/1/6 250/1/6 253/1/6
f 253/1/6 250/1/6 254/1/6
f 255/6/6 256/6/6 259/6/6
f 259/6/6 256/6/6 260/6/6
f 257/6/6 258/6/6 261/6/6
f 261/6/6 258/6/6 262/6/6
f 263/6/6 264/6/6 267/6/6
f 267/6/6 264/6/6 268/6/6
f 265/6/6 266/6/6 269/6/6
f 269/6/6 266/6/6 270/6/6
f 271/3/6 272/3/6 273/3/6
f 273/3/6 272/3/6 274/3/6
f 275/5/6 276/5/6 279/5/6
f 279/5/6 276/5/6 280/5/6
f 277/5/6 278/5/6 281/5/6
f 281/5/6 278/5/6 282/5/6
f 283/5/6 284/5/6 285/5/6
f 285/5/6 284/5/6 286/5/6
f 287/7/6 288/7/6 291/7/6
f 291/7/6 288/7/6 292/7/6
f 289/5/6 290/5/6 293/5/6
f 293/5/6 290/5/6 294/5/6
f 295/5/6 296/5/6 299/5/6
f 299/5/6 296/5/6 300/5/6
f 297/5/6 298/5/6 301/5/6
f 301/5/6 298/5/6 302/5/6
f 303/7/6 304/7/6 305/7/6
f 305/7/6 304/7/6 306/7/6
f 307/7/6 308/7/6 309/7/6
f 309/7/6 308/7/6 310/7/6
f 311/7/6 312/7/6 313/7/6
f 313/7/6 312/7/6 314/7/6
f 315/7/6 316/7/6 317/7/6
f 317/7/6 316/7/6 318/7/6
f 319/5/6 320/5/6 321/5/6
f 321/5/6 320/5/6 322/5/6
