# 3ds Max Wavefront OBJ Exporter v0.97b - (c)2007 guruware
# File Created: 03.12.2017 16:54:37

mtllib SandP-Chest.mtl

#
# object SandP_Chest
#

v  -10.0000 -4.0000 5.0000
v  -10.0000 -5.0000 3.0000
v  -10.0000 -5.0000 5.0000
v  -10.0000 -4.0000 3.0000
v  -10.0000 -5.0000 -3.0000
v  -10.0000 -4.0000 -3.0000
v  -10.0000 -5.0000 -5.0000
v  -10.0000 -4.0000 -5.0000
v  -10.0000 0.0000 2.0000
v  -10.0000 0.0000 -2.0000
v  -10.0000 1.0000 3.0000
v  -10.0000 1.0000 2.0000
v  -10.0000 1.0000 -2.0000
v  -10.0000 1.0000 -3.0000
v  -10.0000 2.0000 2.0000
v  -10.0000 2.0000 -2.0000
v  -10.0000 3.0000 3.0000
v  -10.0000 3.0000 -3.0000
v  -10.0000 4.0000 5.0000
v  -10.0000 4.0000 3.0000
v  -10.0000 5.0000 5.0000
v  -10.0000 5.0000 3.0000
v  -10.0000 5.0000 -5.0000
v  10.0000 -5.0000 5.0000
v  10.0000 -5.0000 3.0000
v  10.0000 -4.0000 5.0000
v  10.0000 -5.0000 -3.0000
v  10.0000 -4.0000 3.0000
v  10.0000 -5.0000 -5.0000
v  10.0000 -4.0000 -3.0000
v  10.0000 -4.0000 -5.0000
v  10.0000 0.0000 2.0000
v  10.0000 0.0000 -2.0000
v  10.0000 1.0000 3.0000
v  10.0000 1.0000 2.0000
v  10.0000 1.0000 -2.0000
v  10.0000 1.0000 -3.0000
v  10.0000 2.0000 2.0000
v  10.0000 2.0000 -2.0000
v  10.0000 3.0000 3.0000
v  10.0000 3.0000 -3.0000
v  10.0000 5.0000 5.0000
v  10.0000 5.0000 -5.0000
v  -8.0000 -5.0000 5.0000
v  -8.0000 -4.0000 5.0000
v  -8.0000 0.0000 5.0000
v  -8.0000 2.0000 5.0000
v  -8.0000 4.0000 5.0000
v  -8.0000 5.0000 5.0000
v  -6.0000 -2.0000 5.0000
v  -6.0000 0.0000 5.0000
v  -4.0000 0.0000 5.0000
v  -4.0000 1.0000 5.0000
v  -3.0000 3.0000 5.0000
v  -3.0000 5.0000 5.0000
v  2.0000 3.0000 5.0000
v  2.0000 5.0000 5.0000
v  4.0000 0.0000 5.0000
v  4.0000 1.0000 5.0000
v  6.0000 -2.0000 5.0000
v  6.0000 0.0000 5.0000
v  8.0000 -5.0000 5.0000
v  8.0000 -4.0000 5.0000
v  8.0000 0.0000 5.0000
v  8.0000 2.0000 5.0000
v  -9.0000 4.0000 -5.0000
v  -9.0000 5.0000 -5.0000
v  -8.0000 -5.0000 -5.0000
v  -8.0000 -4.0000 -5.0000
v  -8.0000 0.0000 -5.0000
v  -8.0000 2.0000 -5.0000
v  -6.0000 -2.0000 -5.0000
v  -6.0000 0.0000 -5.0000
v  -6.0000 4.0000 -5.0000
v  -6.0000 5.0000 -5.0000
v  6.0000 -2.0000 -5.0000
v  6.0000 0.0000 -5.0000
v  6.0000 4.0000 -5.0000
v  6.0000 5.0000 -5.0000
v  8.0000 -5.0000 -5.0000
v  8.0000 -4.0000 -5.0000
v  8.0000 0.0000 -5.0000
v  8.0000 2.0000 -5.0000
v  9.0000 4.0000 -5.0000
v  9.0000 5.0000 -5.0000
v  -8.0000 -5.0000 3.0000
v  -7.0000 -5.0000 3.0000
v  -6.0000 -5.0000 3.0000
v  6.0000 -5.0000 3.0000
v  7.0000 -5.0000 3.0000
v  8.0000 -5.0000 3.0000
v  -4.0000 -5.0000 2.0000
v  4.0000 -5.0000 2.0000
v  -7.0000 -5.0000 1.0000
v  -6.0000 -5.0000 1.0000
v  -4.0000 -5.0000 1.0000
v  4.0000 -5.0000 1.0000
v  6.0000 -5.0000 1.0000
v  7.0000 -5.0000 1.0000
v  -4.0000 -5.0000 0.0000
v  4.0000 -5.0000 0.0000
v  -4.0000 -5.0000 -1.0000
v  -1.0000 -5.0000 -1.0000
v  1.0000 -5.0000 -1.0000
v  4.0000 -5.0000 -1.0000
v  -6.0000 -5.0000 -2.0000
v  -4.0000 -5.0000 -2.0000
v  -1.0000 -5.0000 -2.0000
v  1.0000 -5.0000 -2.0000
v  4.0000 -5.0000 -2.0000
v  6.0000 -5.0000 -2.0000
v  -8.0000 -5.0000 -3.0000
v  -4.0000 -5.0000 -3.0000
v  -1.0000 -5.0000 -3.0000
v  1.0000 -5.0000 -3.0000
v  4.0000 -5.0000 -3.0000
v  8.0000 -5.0000 -3.0000
v  -6.0000 -5.0000 -4.0000
v  6.0000 -5.0000 -4.0000
v  5.0000 5.0000 4.0000
v  9.0000 5.0000 4.0000
v  -8.0000 5.0000 3.0000
v  -3.0000 5.0000 3.0000
v  2.0000 5.0000 3.0000
v  6.0000 5.0000 3.0000
v  8.0000 5.0000 3.0000
v  -5.0000 5.0000 2.0000
v  4.0000 5.0000 2.0000
v  6.0000 5.0000 2.0000
v  8.0000 5.0000 2.0000
v  6.0000 5.0000 1.0000
v  8.0000 5.0000 1.0000
v  -5.0000 5.0000 0.0000
v  4.0000 5.0000 0.0000
v  5.0000 5.0000 0.0000
v  9.0000 5.0000 0.0000
v  -8.0000 5.0000 -1.0000
v  -5.0000 5.0000 -1.0000
v  5.0000 5.0000 -1.0000
v  8.0000 5.0000 -1.0000
v  -5.0000 5.0000 -2.0000
v  5.0000 5.0000 -2.0000
v  -8.0000 5.0000 -3.0000
v  8.0000 5.0000 -3.0000
v  -9.0000 5.0000 -4.0000
v  -6.0000 5.0000 -4.0000
v  6.0000 5.0000 -4.0000
v  9.0000 5.0000 -4.0000
# 148 vertices

vn -1.0000 0.0000 0.0000
vn 1.0000 0.0000 0.0000
vn 0.0000 0.0000 1.0000
vn 0.0000 0.0000 -1.0000
vn 0.0000 -1.0000 0.0000
vn 0.0000 1.0000 0.0000
# 6 vertex normals

vt 0.9824 0.5000 0.0000
vt 0.5332 0.5000 0.0000
vt 0.9863 0.5000 0.0000
vt 0.5371 0.5000 0.0000
vt 0.9785 0.5000 0.0000
vt 0.9902 0.5000 0.0000
vt 0.8340 0.5000 0.0000
vt 0.5527 0.5000 0.0000
vt 0.3965 0.5000 0.0000
vt 0.8457 0.5000 0.0000
vt 0.9199 0.5000 0.0000
# 11 texture coords

o SandP_Chest
g SandP_Chest
usemtl palette
s 1
f 1/1/1 2/1/1 3/1/1 
f 4/2/1 5/2/1 2/2/1 
f 4/1/1 2/1/1 1/1/1 
f 6/1/1 7/1/1 5/1/1 
f 6/2/1 5/2/1 4/2/1 
f 8/1/1 7/1/1 6/1/1 
f 9/2/1 4/2/1 1/2/1 
f 9/2/1 6/2/1 4/2/1 
f 9/2/1 8/2/1 6/2/1 
f 10/2/1 8/2/1 9/2/1 
f 11/2/1 9/2/1 1/2/1 
f 12/3/1 10/3/1 9/3/1 
f 12/2/1 9/2/1 11/2/1 
f 13/2/1 8/2/1 10/2/1 
f 13/3/1 10/3/1 12/3/1 
f 14/2/1 8/2/1 13/2/1 
f 15/4/1 12/4/1 11/4/1 
f 15/3/1 13/3/1 12/3/1 
f 16/4/1 14/4/1 13/4/1 
f 16/3/1 13/3/1 15/3/1 
f 17/2/1 11/2/1 1/2/1 
f 17/4/1 15/4/1 11/4/1 
f 17/4/1 16/4/1 15/4/1 
f 18/2/1 8/2/1 14/2/1 
f 18/4/1 16/4/1 17/4/1 
f 18/4/1 14/4/1 16/4/1 
f 19/2/1 17/2/1 1/2/1 
f 19/2/1 18/2/1 17/2/1 
f 20/2/1 18/2/1 19/2/1 
f 21/1/1 20/1/1 19/1/1 
f 22/2/1 18/2/1 20/2/1 
f 22/1/1 20/1/1 21/1/1 
f 23/2/1 8/2/1 18/2/1 
f 23/2/1 18/2/1 22/2/1 
f 24/1/2 25/1/2 26/1/2 
f 25/2/2 27/2/2 28/2/2 
f 26/1/2 25/1/2 28/1/2 
f 27/1/2 29/1/2 30/1/2 
f 28/2/2 27/2/2 30/2/2 
f 30/1/2 29/1/2 31/1/2 
f 26/2/2 28/2/2 32/2/2 
f 28/2/2 30/2/2 32/2/2 
f 30/2/2 31/2/2 32/2/2 
f 32/2/2 31/2/2 33/2/2 
f 26/2/2 32/2/2 34/2/2 
f 32/3/2 33/3/2 35/3/2 
f 34/2/2 32/2/2 35/2/2 
f 33/2/2 31/2/2 36/2/2 
f 35/3/2 33/3/2 36/3/2 
f 36/2/2 31/2/2 37/2/2 
f 34/4/2 35/4/2 38/4/2 
f 35/3/2 36/3/2 38/3/2 
f 36/4/2 37/4/2 39/4/2 
f 38/3/2 36/3/2 39/3/2 
f 26/2/2 34/2/2 40/2/2 
f 34/4/2 38/4/2 40/4/2 
f 38/4/2 39/4/2 40/4/2 
f 37/2/2 31/2/2 41/2/2 
f 40/4/2 39/4/2 41/4/2 
f 39/4/2 37/4/2 41/4/2 
f 26/2/2 40/2/2 42/2/2 
f 40/2/2 41/2/2 42/2/2 
f 41/2/2 31/2/2 43/2/2 
f 42/2/2 41/2/2 43/2/2 
f 44/1/3 1/1/3 3/1/3 
f 45/2/3 19/2/3 1/2/3 
f 45/1/3 1/1/3 44/1/3 
f 46/2/3 19/2/3 45/2/3 
f 47/2/3 19/2/3 46/2/3 
f 48/1/3 21/1/3 19/1/3 
f 48/2/3 19/2/3 47/2/3 
f 49/1/3 21/1/3 48/1/3 
f 50/2/3 45/2/3 44/2/3 
f 50/2/3 46/2/3 45/2/3 
f 51/4/3 47/4/3 46/4/3 
f 51/2/3 46/2/3 50/2/3 
f 52/1/3 51/1/3 50/1/3 
f 52/4/3 47/4/3 51/4/3 
f 53/4/3 47/4/3 52/4/3 
f 54/2/3 49/2/3 48/2/3 
f 54/2/3 48/2/3 47/2/3 
f 55/2/3 49/2/3 54/2/3 
f 56/2/3 54/2/3 47/2/3 
f 56/5/3 55/5/3 54/5/3 
f 57/5/3 55/5/3 56/5/3 
f 58/6/3 53/6/3 52/6/3 
f 58/1/3 52/1/3 50/1/3 
f 59/4/3 47/4/3 53/4/3 
f 59/6/3 53/6/3 58/6/3 
f 60/2/3 50/2/3 44/2/3 
f 60/1/3 58/1/3 50/1/3 
f 61/4/3 59/4/3 58/4/3 
f 61/1/3 58/1/3 60/1/3 
f 62/2/3 60/2/3 44/2/3 
f 62/2/3 61/2/3 60/2/3 
f 63/2/3 61/2/3 62/2/3 
f 64/4/3 59/4/3 61/4/3 
f 64/2/3 61/2/3 63/2/3 
f 65/4/3 47/4/3 59/4/3 
f 65/4/3 59/4/3 64/4/3 
f 65/2/3 57/2/3 56/2/3 
f 65/2/3 56/2/3 47/2/3 
f 24/1/3 63/1/3 62/1/3 
f 26/2/3 64/2/3 63/2/3 
f 26/1/3 63/1/3 24/1/3 
f 26/2/3 65/2/3 64/2/3 
f 42/2/3 57/2/3 65/2/3 
f 42/2/3 65/2/3 26/2/3 
f 8/2/4 23/2/4 66/2/4 
f 66/2/4 23/2/4 67/2/4 
f 7/1/4 8/1/4 68/1/4 
f 8/2/4 66/2/4 69/2/4 
f 68/1/4 8/1/4 69/1/4 
f 69/2/4 66/2/4 70/2/4 
f 70/2/4 66/2/4 71/2/4 
f 68/2/4 69/2/4 72/2/4 
f 69/2/4 70/2/4 72/2/4 
f 70/6/4 71/6/4 73/6/4 
f 72/2/4 70/2/4 73/2/4 
f 66/1/4 67/1/4 74/1/4 
f 71/2/4 66/2/4 74/2/4 
f 74/1/4 67/1/4 75/1/4 
f 72/1/4 73/1/4 76/1/4 
f 68/2/4 72/2/4 76/2/4 
f 73/6/4 71/6/4 77/6/4 
f 76/1/4 73/1/4 77/1/4 
f 74/2/4 75/2/4 78/2/4 
f 71/2/4 74/2/4 78/2/4 
f 78/2/4 75/2/4 79/2/4 
f 68/2/4 76/2/4 80/2/4 
f 76/2/4 77/2/4 80/2/4 
f 80/2/4 77/2/4 81/2/4 
f 77/6/4 71/6/4 82/6/4 
f 81/2/4 77/2/4 82/2/4 
f 71/2/4 78/2/4 83/2/4 
f 82/6/4 71/6/4 83/6/4 
f 78/1/4 79/1/4 84/1/4 
f 83/2/4 78/2/4 84/2/4 
f 82/2/4 83/2/4 84/2/4 
f 81/2/4 82/2/4 84/2/4 
f 84/1/4 79/1/4 85/1/4 
f 80/1/4 81/1/4 29/1/4 
f 81/2/4 84/2/4 31/2/4 
f 29/1/4 81/1/4 31/1/4 
f 84/2/4 85/2/4 31/2/4 
f 31/2/4 85/2/4 43/2/4 
f 2/1/5 44/1/5 3/1/5 
f 86/2/5 62/2/5 44/2/5 
f 86/1/5 44/1/5 2/1/5 
f 87/2/5 62/2/5 86/2/5 
f 88/2/5 62/2/5 87/2/5 
f 89/2/5 62/2/5 88/2/5 
f 90/2/5 62/2/5 89/2/5 
f 91/1/5 24/1/5 62/1/5 
f 91/2/5 62/2/5 90/2/5 
f 25/1/5 24/1/5 91/1/5 
f 92/4/5 89/4/5 88/4/5 
f 93/4/5 89/4/5 92/4/5 
f 94/2/5 86/2/5 2/2/5 
f 94/2/5 87/2/5 86/2/5 
f 94/7/5 88/7/5 87/7/5 
f 95/4/5 92/4/5 88/4/5 
f 95/7/5 88/7/5 94/7/5 
f 96/8/5 93/8/5 92/8/5 
f 96/4/5 92/4/5 95/4/5 
f 97/4/5 89/4/5 93/4/5 
f 97/8/5 93/8/5 96/8/5 
f 98/7/5 90/7/5 89/7/5 
f 98/4/5 89/4/5 97/4/5 
f 99/2/5 91/2/5 90/2/5 
f 99/7/5 90/7/5 98/7/5 
f 99/2/5 25/2/5 91/2/5 
f 100/8/5 97/8/5 96/8/5 
f 100/9/5 96/9/5 95/9/5 
f 101/9/5 98/9/5 97/9/5 
f 101/8/5 97/8/5 100/8/5 
f 102/9/5 100/9/5 95/9/5 
f 102/9/5 101/9/5 100/9/5 
f 103/9/5 101/9/5 102/9/5 
f 104/9/5 101/9/5 103/9/5 
f 105/9/5 98/9/5 101/9/5 
f 105/9/5 101/9/5 104/9/5 
f 106/2/5 95/2/5 94/2/5 
f 106/9/5 102/9/5 95/9/5 
f 107/8/5 103/8/5 102/8/5 
f 107/9/5 102/9/5 106/9/5 
f 108/9/5 104/9/5 103/9/5 
f 108/8/5 103/8/5 107/8/5 
f 109/8/5 105/8/5 104/8/5 
f 109/9/5 104/9/5 108/9/5 
f 110/9/5 98/9/5 105/9/5 
f 110/8/5 105/8/5 109/8/5 
f 111/2/5 99/2/5 98/2/5 
f 111/9/5 98/9/5 110/9/5 
f 5/2/5 94/2/5 2/2/5 
f 5/2/5 106/2/5 94/2/5 
f 112/2/5 106/2/5 5/2/5 
f 113/4/5 107/4/5 106/4/5 
f 113/8/5 108/8/5 107/8/5 
f 114/4/5 109/4/5 108/4/5 
f 114/8/5 108/8/5 113/8/5 
f 115/8/5 110/8/5 109/8/5 
f 115/4/5 109/4/5 114/4/5 
f 116/4/5 111/4/5 110/4/5 
f 116/8/5 110/8/5 115/8/5 
f 117/2/5 25/2/5 99/2/5 
f 117/2/5 99/2/5 111/2/5 
f 27/2/5 25/2/5 117/2/5 
f 118/4/5 114/4/5 113/4/5 
f 118/4/5 113/4/5 106/4/5 
f 118/4/5 116/4/5 115/4/5 
f 118/2/5 106/2/5 112/2/5 
f 118/4/5 115/4/5 114/4/5 
f 119/4/5 111/4/5 116/4/5 
f 119/4/5 116/4/5 118/4/5 
f 119/2/5 117/2/5 111/2/5 
f 7/1/5 112/1/5 5/1/5 
f 68/2/5 118/2/5 112/2/5 
f 68/1/5 112/1/5 7/1/5 
f 68/2/5 119/2/5 118/2/5 
f 80/1/5 27/1/5 117/1/5 
f 80/2/5 119/2/5 68/2/5 
f 80/2/5 117/2/5 119/2/5 
f 29/1/5 27/1/5 80/1/5 
f 57/2/6 42/2/6 120/2/6 
f 120/2/6 42/2/6 121/2/6 
f 21/1/6 49/1/6 22/1/6 
f 49/2/6 55/2/6 122/2/6 
f 22/1/6 49/1/6 122/1/6 
f 55/5/6 57/5/6 123/5/6 
f 122/2/6 55/2/6 123/2/6 
f 57/2/6 120/2/6 124/2/6 
f 123/5/6 57/5/6 124/5/6 
f 120/3/6 121/3/6 125/3/6 
f 125/3/6 121/3/6 126/3/6 
f 22/2/6 122/2/6 127/2/6 
f 122/2/6 123/2/6 127/2/6 
f 123/2/6 124/2/6 127/2/6 
f 124/2/6 120/2/6 128/2/6 
f 127/2/6 124/2/6 128/2/6 
f 125/10/6 126/10/6 129/10/6 
f 120/3/6 125/3/6 129/3/6 
f 126/3/6 121/3/6 130/3/6 
f 129/10/6 126/10/6 130/10/6 
f 120/3/6 129/3/6 131/3/6 
f 129/11/6 130/11/6 131/11/6 
f 130/3/6 121/3/6 132/3/6 
f 131/11/6 130/11/6 132/11/6 
f 22/2/6 127/2/6 133/2/6 
f 127/4/6 128/4/6 133/4/6 
f 128/2/6 120/2/6 134/2/6 
f 133/4/6 128/4/6 134/4/6 
f 120/3/6 131/3/6 135/3/6 
f 134/2/6 120/2/6 135/2/6 
f 131/3/6 132/3/6 135/3/6 
f 121/2/6 42/2/6 136/2/6 
f 135/3/6 132/3/6 136/3/6 
f 132/3/6 121/3/6 136/3/6 
f 22/2/6 133/2/6 137/2/6 
f 134/6/6 135/6/6 138/6/6 
f 137/2/6 133/2/6 138/2/6 
f 133/6/6 134/6/6 138/6/6 
f 135/2/6 136/2/6 139/2/6 
f 138/6/6 135/6/6 139/6/6 
f 139/2/6 136/2/6 140/2/6 
f 137/4/6 138/4/6 141/4/6 
f 138/6/6 139/6/6 141/6/6 
f 139/4/6 140/4/6 142/4/6 
f 141/6/6 139/6/6 142/6/6 
f 22/2/6 137/2/6 143/2/6 
f 137/4/6 141/4/6 143/4/6 
f 141/4/6 142/4/6 143/4/6 
f 142/4/6 140/4/6 144/4/6 
f 143/4/6 142/4/6 144/4/6 
f 140/2/6 136/2/6 144/2/6 
f 22/2/6 143/2/6 145/2/6 
f 143/2/6 144/2/6 145/2/6 
f 145/2/6 144/2/6 146/2/6 
f 146/2/6 144/2/6 147/2/6 
f 144/2/6 136/2/6 148/2/6 
f 147/2/6 144/2/6 148/2/6 
f 136/2/6 42/2/6 148/2/6 
f 22/2/6 145/2/6 23/2/6 
f 145/1/6 146/1/6 67/1/6 
f 23/2/6 145/2/6 67/2/6 
f 146/2/6 147/2/6 75/2/6 
f 67/1/6 146/1/6 75/1/6 
f 147/1/6 148/1/6 79/1/6 
f 75/2/6 147/2/6 79/2/6 
f 148/2/6 42/2/6 85/2/6 
f 79/1/6 148/1/6 85/1/6 
f 85/2/6 42/2/6 43/2/6 
# 0 polygons - 292 triangles

